<svg id="Layer_1" data-name="Layer 1" xmlns="http://www.w3.org/2000/svg" viewBox="0 0 1973.41 2344.74"><defs><style>.cls-1{fill:#040537;}</style></defs><path class="cls-1" d="M1516.24,1122.41c26.79,4.3,45.41,6.8,63.82,10.37,29.91,5.79,60.08,10.83,89.45,18.73,184.45,49.55,285.74,170.64,308.2,359.52,19.44,163.46,9.11,323.63-48,479.51-32.58,89-88.75,158.58-164.76,214.22-119.76,87.67-255.56,133.2-400.9,149.26-99,10.95-199,13.61-298.65,18-40.54,1.78-39.38-2-45.59-41.3-9.94-62.83-23.23-125.14-35.39-187.62-7.4-38-19.41-75.57-22.14-113.85-4.82-67.54,26.7-104.41,93.43-114,31.43-4.54,63.52-5.21,95.35-6,180.5-4.67,339.42-155.16,353.39-335.9,1.49-19.2,1.45-39.09-1.89-58-6.06-34.16-27.95-49.68-62.65-46-20.63,2.21-40.84,8.11-61.45,10.67-74,9.18-141.42-4.59-180.18-74.35-63.85-114.88-167.91-135.64-284.44-128.82-54.46,3.19-105.68,20.73-153.34,48.61-58.81,34.4-84.14,30.18-129.19-22.74-42.46-49.87-86.39-97.81-142.94-132.06-17.7-10.72-36.05-21.49-55.52-27.91-35.48-11.69-54.32,3.51-51.43,40.44,1.51,19.21,4.72,38.89,11,57,27.95,81.18,54.49,163,86.84,242.45,35.25,86.56,43.88,174.29,25.44,264.82-16.86,82.78-69.3,134.53-149.53,156.46-35.86,9.8-73.41,16.37-110.49,18.11-63.66,3-127.56.4-191.34,1.49-28,.49-41.68-10.15-39.88-38.91.69-11.05-.06-22.19-.06-33.28q0-848.79,0-1697.58C13.4,58.58,37.15,34.78,134,32.7c15.25-.33,30.51-.1,45.77-.21,260.69-1.85,521.39-5.59,782.07-4.73,120.8.39,240.76,16.46,357.56,49.13,42.6,11.91,84.47,27.22,125.44,44,217.21,89,320.75,259.7,341.22,486,18.8,207.89-65.26,369-233.73,488.47C1542.52,1102.3,1533.09,1109.74,1516.24,1122.41Z" transform="translate(-13.29 -27.63)"/></svg>