<?xml version="1.0" encoding="utf-8"?>
<!-- Generator: Adobe Illustrator 27.6.1, SVG Export Plug-In . SVG Version: 6.00 Build 0)  -->
<svg version="1.1" id="Layer_1" xmlns="http://www.w3.org/2000/svg" xmlns:xlink="http://www.w3.org/1999/xlink" x="0px" y="0px"
	 width="600px" height="600px" viewBox="0 0 600 600" style="enable-background:new 0 0 600 600;" xml:space="preserve">
<g>
	<g>
		<path d="M326.7,284.9c-2.5-1-5.3,0.3-6.4,3c-2.5,6.6-8.1,11.7-14.7,13.2v-18.8c8.6-1.5,15.2-7.4,15.2-14.2
			c0-8.1-8.9-14.7-20.1-14.7s-20.1,6.6-20.1,14.7c0,6.9,6.4,12.7,15.2,14.2v19.1c-6.6-1.5-12.2-6.1-15-12.4c-1-2.5-4.1-3.8-6.6-2.5
			c-2.5,1-3.8,4.1-2.5,6.6c4.8,11.4,16.3,19.1,28.7,19.1c13,0,24.9-8.1,29.5-20.6C330.5,288.7,329.2,285.7,326.7,284.9z"/>
		<path d="M251.2,282.1c0-8.4,2.3-16.8,6.9-23.9c4.6-7.1,12.2-11.9,18.3-17.5c10.2-9.4,15.2-22.9,15.2-36.6c0-9.7-2.5-18.8-7.1-26.7
			c-3.3-5.6-10.2-8.1-16.3-5.8c-23.4,9.4-61.5,47.5-81.8,69.1c-8.1,8.6-9.4,21.9-3,32l24.4,38.4c0,0,0,0,0,0.3
			c4.3,6.6,14.5,3.3,14.5-4.6v-72.9c0-2,1.8-3.8,3.8-3.8s3.6,2,3.6,4.1v24.1c0,30.2,20.1,57.4,49.3,65.3c0.8,0.3,1.5,0.5,2.3,0.5
			C263.9,318.2,251.2,301.7,251.2,282.1z M260.1,211.7c6.1,0,10.9,4.8,10.9,10.9c0,6.1-4.8,10.9-10.9,10.9
			c-6.1,0-10.9-4.8-10.9-10.9C249.2,216.6,254.3,211.7,260.1,211.7z"/>
		<path d="M413.6,240.7c-20.3-21.6-58.2-59.7-81.8-69.1c-6.1-2.3-13,0.3-16.3,5.8c-4.6,7.9-7.1,17-7.1,26.7
			c0,13.7,5.3,27.2,15.2,36.6c6.1,5.8,13.7,10.4,18.3,17.5c4.6,7.1,6.9,15.5,6.9,23.9c0,19.6-12.7,36.3-30.5,41.9
			c0.8-0.3,1.5-0.3,2.3-0.5c29.2-7.9,49.3-34.8,49.3-65.3v-24.1c0-2,1.5-3.8,3.6-4.1c2,0,3.8,1.5,3.8,3.8v72.9
			c0,7.9,10.2,10.9,14.5,4.6c0,0,0,0,0-0.3l24.9-38.4C423,262.6,421.7,249.4,413.6,240.7z M341.7,233.3c-6.1,0-10.9-4.8-10.9-10.9
			c0-6.1,4.8-10.9,10.9-10.9c6.1,0,10.9,4.8,10.9,10.9C352.6,228.5,347.8,233.3,341.7,233.3z"/>
	</g>
	<path d="M403.7,92.7c-87.3-56-203.9-30.5-259.9,56.9c-37.1,57.8-36.4,89.1-31.7,332.3l0.7,38.4c0.1,5.7,3.1,11,7.9,14.1
		c4.8,3.1,10.8,3.6,16.1,1.3l29.3-12.8c19.9-8.7,38.2-16.7,55.2-24.1c11.4-11.1,19.1-18.7,22.9-22.9c9.7-10.8,20.3-25.1,31.8-42.9
		L203.1,443c-4.1,0.4-6.2-0.5-6.4-2.6c-0.2-1.8,3-3.4,9.5-5.1c9.2-2.4,22.2-5,39-7.8c18.7-3,31.8-5.3,39.3-7l13.2-19.4
		c-26.3-0.7-52.8-8.4-76.5-23.6c-69.7-44.7-90-137.7-45.4-207.3c44.7-69.7,137.7-90,207.3-45.4c69.7,44.7,90,137.7,45.4,207.3
		c-24.7,38.5-64,61.9-106.1,67.6c-3.4,5.5-7.2,11.6-11.5,18.2c14.1-2.4,25.9-4,35.2-5c6.2-0.6,9.5,0.3,9.7,2.7
		c0.3,2.7-7.1,5.3-22,7.7l-30.8,4.1l-31.9,49.2c133.9-59.5,159.1-76.7,189.4-124C516.5,265.3,491,148.7,403.7,92.7z"/>
</g>
</svg>
